<svg width="0" height="0" class="hidden">
  <symbol version="1.1" id="female-male-filter" xmlns="http://www.w3.org/2000/svg" xmlns:xlink="http://www.w3.org/1999/xlink" x="0px" y="0px" enable-background="new 0 0 100 100" xml:space="preserve" viewBox="0 0 100 100">
    <g>
      <path d="M34.199,47.04v-0.977v-5.438h0.022c0.163-5.466,1.39-10.528,3.382-14.767c0.223-0.731,0.474-1.447,0.756-2.145
		c-1.879-1.251-4.026-2.022-6.349-2.022c-7.114,0-12.872,6.702-12.872,14.978c0,5.79,2.83,10.801,6.962,13.295L8.652,58.086
		c-1.088,0.511-1.804,1.739-1.804,3.111v13.771c0,1.846,1.289,3.341,2.874,3.341h11.532v-14.45c0-3.739,2.068-7.121,5.275-8.623
		l7.669-3.572V47.04z"></path>
      <path d="M90.853,60.441l-15.66-7.47l-6.621-3.159c0.166-0.105,0.324-0.224,0.487-0.335h8.695c1.346,0,2.438-1.091,2.438-2.438
		v-6.415H80.17c-0.266-8.937-3.368-16.798-8.029-21.731c-2.46-2.777-5.65-4.663-9.219-5.226c-0.157-0.026-0.315-0.049-0.474-0.07
		c-0.185-0.023-0.369-0.046-0.555-0.062c-0.398-0.035-0.798-0.059-1.202-0.059c-0.398,0-0.793,0.023-1.186,0.057
		c-0.187,0.016-0.372,0.039-0.557,0.062c-0.157,0.02-0.313,0.043-0.469,0.068c-3.532,0.553-6.694,2.405-9.145,5.134
		c-4.712,4.927-7.853,12.832-8.121,21.827h-0.022v6.415c0,1.346,1.091,2.438,2.438,2.438h8.719c0.238,0.162,0.475,0.327,0.721,0.475
		l-6.342,2.953l-16.168,7.53c-1.405,0.658-2.328,2.242-2.328,4.011v15.062v2.703c0,2.381,1.659,4.311,3.708,4.311h57.505
		c2.049,0,3.708-1.93,3.708-4.311v-2.703V64.446C93.152,62.683,92.244,61.114,90.853,60.441z"></path>
    </g>
  </symbol>
  <symbol xmlns="http://www.w3.org/2000/svg" viewBox="-0.019 -0.021 1185.633 195.854" id="friends">
    <path d="M143.966 94.64c0-3.676-1.546-7.096-4.119-9.724-2.83-2.891-5.921-4.199-9.779-4.199-3.602 0-6.948 1.314-9.778 4.199-2.574 2.628-3.857 6.042-3.857 9.724 0 3.937 1.283 7.356 3.857 9.973 2.83 2.903 6.177 4.205 9.778 4.205 3.858 0 6.949-1.309 9.779-4.205 2.58-2.616 4.119-6.036 4.119-9.973z" fill="#e91e23"></path>
    <path d="M348.832 86.984c-2.83-2.629-5.921-3.938-9.779-3.938-3.857 0-6.948 1.314-9.778 3.938-2.574 2.89-3.857 6.042-3.857 9.979 0 3.942 1.283 7.095 3.857 9.985 2.83 2.629 6.177 3.942 9.778 3.942 3.864 0 6.949-1.32 9.779-3.942 2.573-2.891 4.113-6.036 4.113-9.985.01-3.937-1.54-7.089-4.113-9.979z" fill="#02b2e7"></path>
    <path d="M470.834 88.037c-2.83-2.891-5.915-4.205-9.779-4.205-3.602 0-6.948 1.314-9.777 4.205-2.574 2.628-3.858 6.036-3.858 9.718 0 3.937 1.284 7.351 3.858 9.991 2.829 2.891 6.176 4.192 9.777 4.192 3.864 0 6.949-1.309 9.779-4.192 2.574-2.641 4.119-6.049 4.119-9.991 0-3.682-1.545-7.09-4.119-9.718z" fill="#fabc16"></path>
    <path d="M653.092 101.284c0-3.938-1.284-7.096-3.864-9.986-2.83-2.622-6.171-4.198-9.772-4.198-3.858 0-6.949 1.576-9.772 4.198-2.574 2.891-3.864 6.043-3.864 9.986 0 3.675 1.29 7.095 3.864 9.985 2.829 2.628 5.921 3.931 9.772 3.931 3.607 0 6.949-1.309 9.772-3.931 2.579-2.89 3.864-6.31 3.864-9.985z" fill="#e91e23"></path>
    <path d="M843.266 88.821c-2.836-2.628-6.183-4.198-9.778-4.198-3.864 0-6.949 1.57-9.779 4.198-2.574 2.891-3.857 6.043-3.857 9.986 0 3.681 1.283 7.095 3.857 9.985 2.836 2.629 5.921 3.931 9.779 3.931 3.602 0 6.948-1.309 9.778-3.931 2.573-2.891 3.857-6.298 3.857-9.985.001-3.943-1.283-7.095-3.857-9.986z" fill="#fabc16"></path>
    <path d="M1062.511 87.545c-2.568-2.89-5.921-4.204-9.518-4.204-3.857 0-7.204 1.314-9.772 4.204-2.829 2.629-4.119 6.037-4.119 9.718 0 3.938 1.29 7.351 4.119 9.992 2.574 2.89 5.921 4.192 9.772 4.192 3.603 0 6.955-1.309 9.518-4.192 2.835-2.642 4.119-6.049 4.119-9.992-.009-3.681-1.289-7.089-4.119-9.718z" fill="#02b2e7"></path>
    <path d="M573.658 50.451v-7.88c-15.182-5.251-29.853-3.413-43.744 5.258-4.375 2.1-8.233 6.827-11.836 13.916l-8.75 20.227c-1.801 3.414-2.574 8.142-2.574 14.446 0 6.042-1.027 10.771-2.573 14.445-1.802 5.251-2.574 14.976-2.574 28.892 16.733-1.832 30.37-4.192 41.433-7.345 15.699-4.466 27.535-10.776 35.768-18.918-7.467 0-16.211 1.582-25.733 4.466l-25.733 8.665c-4.893 0-8.232-2.093-10.034-6.298-1.808-3.675-1.808-7.88-.262-12.084 4.12-6.561 6.949-10.509 8.495-11.817 4.119-3.938 9.006-5.252 14.67-3.938.773 0 1.546-1.053 2.574-2.628.773-1.838 1.54-2.629 2.574-2.629l7.205.785c2.829.522 4.631.262 5.658-.785 2.057-1.576 5.921-2.891 11.574-4.467 4.637-1.047 8.494-3.151 11.58-6.042h-51.467c-2.057 0-3.341-.791-4.12-2.105-.772-1.314-.772-2.891-.511-4.99.767-4.466 3.085-7.351 7.204-8.665 9.783-4.21 23.42-7.624 41.176-10.509zM585.244 77.961l-3.863.522h4.892zM586.273 78.483l2.829.785c3.091 1.314 5.665 1.053 7.722-.785h-10.551z"></path>
    <path d="M581.381 76.715h4.893m-.001 0l2.829.784m-.009.007c3.091 1.313 5.665 1.052 7.722-.785m-.001-.006h-10.545m0 0l-1.029-.523-3.863.523m0 0H529.91m0 0c-2.058 0-3.342-.791-4.12-2.105-.772-1.314-.772-2.891-.511-4.99.767-4.466 3.085-7.351 7.204-8.665 9.778-4.204 23.421-7.618 41.177-10.509m-.01.005v-7.88m0-.006c-15.182-5.251-29.853-3.414-43.744 5.258-4.376 2.099-8.233 6.827-11.836 13.916m0 0l-8.75 20.227m0 0c-1.801 3.414-2.574 8.142-2.574 14.445 0 6.043-1.028 10.771-2.574 14.446-1.801 5.251-2.573 14.975-2.573 28.892 16.733-1.832 30.37-4.192 41.433-7.345 15.699-4.467 27.534-10.776 35.768-18.918-7.467 0-16.211 1.582-25.733 4.466m-.002 0l-25.733 8.665m0 0c-4.893 0-8.233-2.093-10.034-6.298-1.808-3.675-1.808-7.88-.262-12.085 4.119-6.56 6.949-10.509 8.494-11.816 4.12-3.938 9.006-5.252 14.671-3.938.773 0 1.546-1.053 2.574-2.629.773-1.837 1.539-2.628 2.574-2.628m0 0l7.205.784m0 .001c2.829.523 4.63.262 5.658-.784 2.057-1.576 5.921-2.891 11.574-4.467 4.637-1.047 8.494-3.152 11.579-6.042" fill="none" stroke="#000" stroke-width="12.171" stroke-linecap="round" stroke-linejoin="round" stroke-miterlimit="2.613"></path>
    <path d="M780.325 54.962c0-1.576.767-4.729 2.573-9.194 1.802-4.205 2.574-7.357 2.574-9.195.518-1.313 1.546-3.413 3.092-5.251l3.602-5.513c2.836-4.461 3.086-8.665 1.029-12.87-2.574 7.88-7.205 19.703-14.148 35.464-6.955 15.76-11.579 27.577-14.153 35.463l-5.154 14.185c-3.085 4.989-7.204 6.571-12.863 4.204-14.665-6.042-25.989-14.707-33.449-26.269L705.7 60.487c-3.086-5.513-5.66-7.618-7.723-5.513-7.46 7.88-12.602 19.436-14.664 35.195l-3.348 40.977c2.057 0 3.098 1.309 3.348 3.676l.517 1.844c.262.523.772.523 1.284-.262 2.062-3.414 3.863-8.142 4.893-14.452l2.318-16.021c.517-6.036 1.545-10.241 2.829-12.603 1.808-3.413 4.382-4.728 7.983-4.204 4.637 0 9.518 1.575 14.147 4.466 3.864 2.1 7.983 5.514 12.864 10.241l12.869 13.138c5.148 4.978 9.773 8.927 14.154 11.549 5.147 0 7.722-.784 7.722-2.628 0-10.509 1.539-22.332 4.631-35.464 2.057-7.881 5.653-19.705 10.801-35.464z"></path>
    <path d="M782.898 45.773c1.802-4.205 2.574-7.357 2.574-9.194.518-1.314 1.546-3.414 3.092-5.252m0-.006l3.602-5.513m-.01 0c2.836-4.461 3.085-8.665 1.028-12.87-2.573 7.88-7.204 19.703-14.147 35.464-6.955 15.76-11.58 27.577-14.153 35.463m0-.006l-5.154 14.184m-.001-.006c-3.085 4.99-7.205 6.572-12.864 4.205-14.664-6.042-25.988-14.707-33.449-26.269m0 0l-7.728-15.499m0 .006c-3.085-5.513-5.659-7.618-7.722-5.513-7.461 7.88-12.603 19.436-14.665 35.195m.01.001l-3.347 40.977m.001-.006c2.057 0 3.098 1.309 3.347 3.675m-.001-.001l.518 1.844m0 0c.262.523.772.523 1.284-.262 2.062-3.413 3.863-8.142 4.892-14.451m-.01 0l2.318-16.022m0 0c.518-6.036 1.546-10.24 2.829-12.602 1.808-3.414 4.382-4.729 7.984-4.205 4.637 0 9.517 1.576 14.147 4.467 3.864 2.1 7.983 5.513 12.863 10.241m.001 0l12.87 13.138m.001 0c5.147 4.978 9.772 8.926 14.153 11.549 5.147 0 7.722-.785 7.722-2.629 0-10.509 1.54-22.332 4.631-35.463 2.062-7.88 5.665-19.697 10.807-35.457 0-1.576.768-4.729 2.574-9.194" fill="none" stroke="#000" stroke-width="12.171" stroke-linecap="round" stroke-linejoin="round" stroke-miterlimit="2.613"></path>
    <path d="M988.435 89.878c2.829-14.707-.779-27.06-10.296-36.771-12.353-9.456-24.45-12.87-36.023-10.509l-21.62-2.367c-8.232-1.053-14.92-1.053-19.557-.262 2.062 10.771.772 23.379-4.375 37.301l-13.637 33.62c-3.347 6.298-4.119 12.869-2.574 19.168l5.148 17.604h5.147v-15.76c0-1.047.517-1.844 1.546-2.105l3.602-.523c7.467-3.152 20.33-6.298 38.598-9.724 16.472-2.891 29.336-6.561 38.604-11.288 4.119-2.891 7.466-6.036 10.545-9.2 3.091-3.672 4.892-6.823 4.892-9.184zm-16.734-25.485c5.41 4.467 8.75 11.032 10.29 20.227-2.057 7.881-9 13.661-20.841 17.343l-15.699 3.931c-6.688 1.582-11.836 3.152-15.432 4.729-2.574 0-5.148-2.105-8.239-6.572-1.54-2.093-3.085-3.414-4.624-3.675-1.291 0-2.836.522-4.893 1.582l-6.183 2.367-8.495-.274 9.262-24.687c3.347-9.979 5.665-18.383 6.949-24.687 4.375 1.575 11.068 2.36 19.301 2.36l20.842.785c7.735.791 13.649 3.158 17.762 6.571z"></path>
    <path d="M978.139 53.1c-12.353-9.456-24.45-12.87-36.023-10.509m0 .006l-21.62-2.367m0 0c-8.232-1.053-14.92-1.053-19.557-.262 2.062 10.771.772 23.379-4.375 37.301m0-.006l-13.637 33.62m0 .006c-3.347 6.298-4.119 12.869-2.574 19.167m0 0l5.148 17.604h5.147V131.9m.001.001c0-1.047.517-1.844 1.546-2.105m0 0l3.602-.523m-.01-.001c7.467-3.152 20.33-6.298 38.598-9.724 16.472-2.891 29.335-6.561 38.603-11.288 4.12-2.891 7.466-6.036 10.546-9.2 3.097-3.676 4.898-6.821 4.898-9.188 2.828-14.708-.779-27.061-10.297-36.771" fill="none" stroke="#000" stroke-width="12.171" stroke-linecap="round" stroke-linejoin="round" stroke-miterlimit="2.613"></path>
    <path d="M1167.441 49.245l-.779-7.618h-7.729c-8.999 7.095-19.295 14.184-30.875 21.018-22.387 9.188-32.676 18.912-30.875 28.892 1.801 4.198 5.148 7.095 10.034 8.403l15.955.523 18.528-1.838 17.232.791c1.297 0 2.069.523 2.836 1.308l2.318 3.943c1.029 2.105.773 4.205-.262 6.298l-2.312 4.205c-6.182 5.251-13.643 9.724-22.131 13.393-8.238 3.943-16.21 6.299-24.193 7.619-3.347 3.675-5.148 7.095-5.148 10.509 4.375-3.676 10.545-7.357 18.791-10.771l21.875-7.88c8.227-3.414 14.403-6.834 18.778-10.509 5.409-4.729 9.006-10.771 10.034-18.128-6.943-3.942-16.721-6.048-28.557-5.519l-30.626.262c-2.051-1.047-3.085-3.152-3.085-6.566l.512-6.565c16.216-13.131 31.653-21.803 46.318-26.269 2.326-1.034 3.361-2.872 3.361-5.501z"></path>
    <path d="M1166.662 41.627h-7.729m0 0c-8.999 7.095-19.295 14.184-30.875 21.018-22.387 9.188-32.676 18.912-30.875 28.892 1.801 4.198 5.148 7.095 10.034 8.403m.001-.001l15.955.523 18.528-1.838 17.232.791m0 .001c1.297 0 2.069.523 2.836 1.308m0-.001l2.318 3.943m.001.007c1.029 2.105.773 4.205-.262 6.298m0-.001l-2.312 4.205m-.001.001c-6.182 5.251-13.643 9.724-22.131 13.394a88.828 88.828 0 0 1-24.193 7.618c-3.347 3.675-5.148 7.095-5.148 10.509 4.375-3.676 10.545-7.356 18.791-10.771m.01 0l21.875-7.88m0 0c8.228-3.414 14.404-6.834 18.779-10.509 5.409-4.729 9.006-10.771 10.033-18.128-6.942-3.942-16.721-6.048-28.557-5.519m0 .012l-30.625.262m-.01 0c-2.051-1.046-3.085-3.151-3.085-6.565m.009-.006l.512-6.565m-.01-.001c16.216-13.132 31.653-21.803 46.318-26.27 2.318-1.046 3.354-2.89 3.354-5.513m.01.001l-.779-7.618" fill="none" stroke="#000" stroke-width="12.171" stroke-linecap="round" stroke-linejoin="round" stroke-miterlimit="2.613"></path>
    <path d="M398.799 64.765c3.341-11.556 3.857-22.064 1.539-31.259h-5.147c-5.143 21.018-11.062 52.531-18.012 94.566 0 1.832 2.574 2.617 7.722 2.617.511-2.891 1.028-9.188.511-18.645 0-8.403.512-14.44 2.058-18.121l11.329-29.158z"></path>
    <path d="M400.344 33.507h-5.147m-.011 0c-5.143 21.018-11.062 52.531-18.012 94.566 0 1.832 2.574 2.617 7.722 2.617.511-2.891 1.028-9.188.511-18.645 0-8.403.512-14.44 2.057-18.121m.01.001l11.324-29.159m.001-.001c3.341-11.556 3.857-22.064 1.539-31.259" fill="none" stroke="#000" stroke-width="12.171" stroke-linecap="round" stroke-linejoin="round" stroke-miterlimit="2.613"></path>
    <path d="M245.328 32.154c-6.177-1.314-12.097-1.314-17.501 0-6.432 4.989-12.353 8.142-18.011 9.718-7.205 1.837-13.381.262-18.012-4.467l-2.574 10.509c-3.347 13.132-7.722 32.573-12.87 57.789-5.147 25.484-9.261 44.651-12.863 57.783-2.057 6.311-1.028 14.976 2.574 26.263l1.283-22.319c.773-9.201 1.284-16.558 2.318-22.332 2.574-16.545 8.233-28.892 16.983-36.771 4.631-3.414 11.58-4.192 20.842-2.367 5.92 1.32 13.643 3.943 22.903 7.618 18.784 7.618 34.229 9.462 46.319 5.252v-5.252c-7.461 0-15.955-1.569-25.733-4.466l-25.733-8.665-3.603-5.252c-1.028-2.1-1.546-3.937-1.546-5.251 2.312-4.467 6.432-8.665 12.864-12.87l16.982-9.979c6.177-3.937 10.034-7.618 11.836-11.032 2.057-4.728 1.028-9.979-3.085-16.021-2.311-3.684-6.941-6.312-13.373-7.888zm-3.353 23.378c-3.341 4.205-7.978 8.665-14.154 13.661-6.176 5.251-11.835 9.194-17.5 12.347-5.915 3.151-10.546 4.728-13.381 3.937 0-7.351.511-12.869 1.801-16.545 1.801-4.989 5.148-9.194 10.552-12.085 5.659-3.151 11.579-5.78 17.494-8.142 9.262-3.413 15.443-3.937 18.267-1.576 1.558 1.308.53 3.937-3.079 8.403z"></path>
    <path d="M227.827 32.154c-6.432 4.989-12.353 8.142-18.011 9.718-7.205 1.837-13.381.262-18.012-4.467m-.005 0l-2.574 10.509m-.001 0c-3.347 13.132-7.722 32.573-12.87 57.789-5.147 25.484-9.261 44.651-12.863 57.783-2.057 6.311-1.028 14.976 2.574 26.263m.006 0l1.283-22.319m0-.001c.773-9.201 1.284-16.558 2.319-22.332 2.573-16.545 8.232-28.892 16.983-36.771 4.63-3.414 11.579-4.192 20.841-2.367 5.921 1.32 13.643 3.943 22.903 7.618 18.785 7.618 34.229 9.462 46.319 5.252m-.004.006v-5.252m0-.006c-7.46 0-15.955-1.569-25.733-4.466m.005 0l-25.733-8.665-3.603-5.252m0 0c-1.028-2.099-1.545-3.937-1.545-5.251 2.312-4.467 6.432-8.665 12.863-12.87m0-.006l16.983-9.979m.001 0c6.176-3.937 10.034-7.618 11.835-11.032 2.057-4.728 1.028-9.979-3.085-16.021-2.312-3.676-6.949-6.304-13.381-7.88-6.177-1.314-12.097-1.314-17.501 0" fill="none" stroke="#000" stroke-width="12.171" stroke-linecap="round" stroke-linejoin="round" stroke-miterlimit="2.613"></path>
    <path d="M60.889 21.275c6.949-2.628 13.637-4.204 20.324-5.519 1.546 0 3.347-1.309 4.893-3.938 1.801-2.628 1.028-3.937-2.574-3.937-8.494-2.629-17.5-2.367-27.272.529-8.751 2.623-15.955 6.827-21.358 12.602-5.148 2.891-8.751 9.456-11.069 19.174l-2.829 12.87c-1.284 4.99-2.567 9.194-4.113 12.608L10.97 73.8c-2.312 3.413-3.085 6.833-1.801 10.247 1.545 1.576 2.573 4.204 2.573 7.88 1.028 7.095 1.284 14.969.773 23.634-.256 5.787-1.284 13.667-2.574 23.902l-3.085 24.438c-.772 9.188-1.028 17.591-.518 25.21l6.949-47.28c2.574-18.906 5.659-34.667 8.75-47.281 0-2.36 1.802-4.722 5.665-7.095 3.347-1.838 6.693-3.152 9.779-3.414 4.892-.784 10.289-2.099 15.954-3.937L68.362 73.8c5.921-2.623 10.807-4.461 14.665-5.775l4.375-1.053-49.921 3.938c-2.574 0-4.887-1.047-7.205-3.414-2.057-2.105-3.085-4.466-3.085-7.089 3.347-14.19 8.494-24.692 15.438-31.521l18.26-7.611z"></path>
    <path d="M87.396 66.98l-49.922 3.937m0 0c-2.573 0-4.886-1.047-7.204-3.413-2.057-2.105-3.085-4.467-3.085-7.09 3.347-14.189 8.494-24.692 15.438-31.52m-.006 0l18.272-7.619m0 0c6.949-2.628 13.637-4.204 20.324-5.519 1.546 0 3.347-1.309 4.893-3.938 1.801-2.628 1.028-3.937-2.574-3.937-8.494-2.629-17.5-2.367-27.272.529-8.751 2.623-15.955 6.827-21.358 12.602-5.148 2.891-8.75 9.456-11.069 19.174m-.001.001l-2.829 12.87m0 0c-1.284 4.99-2.567 9.194-4.113 12.608m-.001.007l-5.921 8.136m.001-.001C8.656 77.22 7.884 80.64 9.168 84.054c1.545 1.576 2.573 4.204 2.573 7.88 1.028 7.095 1.284 14.969.773 23.634-.256 5.787-1.284 13.667-2.574 23.902m0 0l-3.085 24.438m-.006 0c-.773 9.188-1.028 17.592-.518 25.21m.001-.006l6.949-47.28m.006.006c2.574-18.906 5.659-34.666 8.75-47.28 0-2.361 1.802-4.723 5.665-7.096 3.347-1.838 6.693-3.151 9.779-3.413 4.892-.785 10.289-2.1 15.954-3.938m-.006 0l14.927-6.304m-.006 0c5.921-2.623 10.807-4.461 14.665-5.774m0 0l4.375-1.053m11.586-1.308l-11.58 1.309" fill="none" stroke="#000" stroke-width="12.171" stroke-linecap="round" stroke-linejoin="round" stroke-miterlimit="2.613"></path>
  </symbol>
  <symbol xmlns="http://www.w3.org/2000/svg" aria-label="GitHub" role="img" viewBox="0 0 512 512" id="github">
    <rect width="512" height="512" rx="15%" ></rect>
    <path fill="#fff" d="M335 499c14 0 12 17 12 17H165s-2-17 12-17c13 0 16-6 16-12l-1-50c-71 16-86-28-86-28-12-30-28-37-28-37-24-16 1-16 1-16 26 2 40 26 40 26 22 39 59 28 74 22 2-17 9-28 16-35-57-6-116-28-116-126 0-28 10-51 26-69-3-6-11-32 3-67 0 0 21-7 70 26 42-12 86-12 128 0 49-33 70-26 70-26 14 35 6 61 3 67 16 18 26 41 26 69 0 98-60 120-117 126 10 8 18 24 18 48l-1 70c0 6 3 12 16 12z"></path>
  </symbol>
  <symbol xmlns="http://www.w3.org/2000/svg" viewBox="0 0 20 20" id="location">
    <path d="M19.367 18.102L18 14h-1.5l.833 4H2.667l.833-4H2L.632 18.102C.285 19.146.9 20 2 20h16c1.1 0 1.715-.854 1.367-1.898zM15 5A5 5 0 1 0 5 5c0 4.775 5 10 5 10s5-5.225 5-10zm-7.7.06c0-1.491 1.208-2.699 2.7-2.699a2.699 2.699 0 1 1 0 5.399 2.7 2.7 0 0 1-2.7-2.7z"></path>
  </symbol>
  <symbol version="1.1" id="male" xmlns="http://www.w3.org/2000/svg" xmlns:xlink="http://www.w3.org/1999/xlink" x="0px" y="0px" xml:space="preserve" viewBox="0 0 546.201 546.201">
    <g>
      <g>
        <path d="M300.4,6.9c-9.1,10.2-20.899,14.2-33.7,7.6c-10.6-5.6-26-3.4-31.8,8.3c-5.9,11.9-13.2,21.1-24,28.6
			c-38.9,22.3-66.3,65-70.2,114.9c-14,9.5-20.5,30.2-14.9,52.3c4.6,18.3,16.5,32.5,30.6,37.4C173,310.4,215.5,366.9,273,366.9
			c57.5,0,100.1-56.5,116.6-111c14.1-4.9,26-19,30.6-37.4c5.5-22.1-1-42.8-14.899-52.3c-3.2-41.9-23.2-78.6-52.5-102.6
			c0,0,0-0.1-0.101-0.1c-10.199-11.9-13.399-24.9-12.699-40.3C341.101,3.4,313.801-8.2,300.4,6.9z M380.601,238.201l-6.4,0.9
			l-1.699,6.2c-4.801,17.5-12.5,35.1-22.601,50.6c-18.899,29.5-46.1,51.5-76.9,51.5c-30.8,0-58-22.1-76.9-51.5
			c-10-15.6-17.8-33-22.6-50.6l-1.7-6.2l-6.4-0.9c-7.6-1-17.2-9.7-20.9-24.4c-3.9-15.5,1.1-31,10.6-33.4c0.6-0.1,1.2-0.2,2.1-0.2
			c0.6,0,1.1,0,1.6,0.1l9.1,0.8l1.3-9.1c3-20,9-36.8,18-52c1.8,0,171.1,0,171.5,0c8.801,14.9,15,32.3,18,52l1.301,9.1l9.1-0.8
			c1.3-0.1,2.7-0.1,3.7,0.1c9.5,2.4,14.399,18,10.5,33.4C397.9,228.5,388.2,237.201,380.601,238.201z"></path>
        <path d="M380.601,336.501c-11.6,19.8-25.1,36.5-42.9,45.7c-36.8,18.8-64.199,34.2-64.199,34.2l-0.101-0.101v-0.3l-0.3,0.2
			l-0.3-0.2v0.3l-0.1,0.101c0,0-27.3-15.2-64.2-34.2c-17.8-9.2-31.2-25.9-42.9-45.7c-54.6,22.1-92.5,73-92.5,117.5
			c0,46.8,0,92.2,0,92.2h199.5h0.8h199.7c0,0,0-45.4,0-92.2C473.101,409.501,435.101,358.501,380.601,336.501z"></path>
      </g>
    </g>
    <g></g>
    <g></g>
    <g></g>
    <g></g>
    <g></g>
    <g></g>
    <g></g>
    <g></g>
    <g></g>
    <g></g>
    <g></g>
    <g></g>
    <g></g>
    <g></g>
    <g></g>
  </symbol>
  <symbol version="1.1" id="phone" xmlns="http://www.w3.org/2000/svg" xmlns:xlink="http://www.w3.org/1999/xlink" x="0px" y="0px" xml:space="preserve" viewBox="0 0 43.633 43.633">
    <g>
      <path d="M33.188,0c-1.934,0-3.5,1.566-3.5,3.5v1.869H10.444c-1.933,0-3.5,1.566-3.5,3.5v31.264c0,1.934,1.567,3.5,3.5,3.5h22.744
		c1.934,0,3.5-1.566,3.5-3.5V3.5C36.688,1.567,35.122,0,33.188,0z M25.661,34.656h3.844c0.064,0,0.127,0.017,0.186,0.037
		c0.186,0.074,0.314,0.252,0.314,0.463v3.845c0,0.274-0.225,0.5-0.5,0.5h-3.844c-0.275,0-0.5-0.226-0.5-0.5v-2.367v-1.478
		C25.161,34.88,25.382,34.656,25.661,34.656z M25.161,33.001v-3.845c0-0.274,0.225-0.5,0.5-0.5h3.844
		c0.064,0,0.127,0.017,0.186,0.037c0.186,0.074,0.314,0.252,0.314,0.463v3.845c0,0.211-0.131,0.39-0.314,0.463
		c-0.059,0.021-0.119,0.037-0.186,0.037h-3.844C25.382,33.501,25.161,33.275,25.161,33.001z M24.238,27.001
		c0,0.274-0.224,0.5-0.5,0.5h-3.844c-0.276,0-0.5-0.226-0.5-0.5v-3.845c0-0.274,0.224-0.5,0.5-0.5h3.844c0.276,0,0.5,0.226,0.5,0.5
		V27.001z M19.895,28.656h3.844c0.276,0,0.5,0.226,0.5,0.5v3.845c0,0.274-0.224,0.5-0.5,0.5h-3.844c-0.276,0-0.5-0.226-0.5-0.5
		v-3.845C19.395,28.88,19.618,28.656,19.895,28.656z M19.895,34.656h3.844c0.276,0,0.5,0.226,0.5,0.5v1.478v2.367
		c0,0.274-0.224,0.5-0.5,0.5h-3.844c-0.276,0-0.5-0.226-0.5-0.5v-2.367v-1.478C19.395,34.88,19.618,34.656,19.895,34.656z
		 M18.472,33.001c0,0.274-0.224,0.5-0.5,0.5h-3.844c-0.065,0-0.127-0.017-0.185-0.037c-0.185-0.073-0.315-0.252-0.315-0.463v-3.845
		c0-0.211,0.131-0.389,0.315-0.463c0.058-0.021,0.119-0.037,0.185-0.037h3.844c0.276,0,0.5,0.226,0.5,0.5V33.001z M18.472,27.001
		c0,0.274-0.224,0.5-0.5,0.5h-3.844c-0.065,0-0.127-0.017-0.185-0.037c-0.185-0.073-0.315-0.252-0.315-0.463v-3.845
		c0-0.211,0.131-0.389,0.315-0.463c0.058-0.021,0.119-0.037,0.185-0.037h3.844c0.276,0,0.5,0.226,0.5,0.5V27.001z M13.628,35.156
		c0-0.211,0.131-0.389,0.315-0.463c0.058-0.021,0.119-0.037,0.185-0.037h3.844c0.276,0,0.5,0.226,0.5,0.5v1.478v2.367
		c0,0.274-0.224,0.5-0.5,0.5h-3.844c-0.276,0-0.5-0.226-0.5-0.5V35.156z M30.005,27.001c0,0.211-0.131,0.39-0.315,0.463
		c-0.058,0.021-0.119,0.037-0.185,0.037h-3.846c-0.275,0-0.5-0.226-0.5-0.5v-3.845c0-0.274,0.225-0.5,0.5-0.5h3.846
		c0.063,0,0.127,0.017,0.185,0.037c0.185,0.074,0.315,0.252,0.315,0.463V27.001z M13.944,12.369h15.744v7.188H13.944V12.369z"></path>
    </g>
    <g></g>
    <g></g>
    <g></g>
    <g></g>
    <g></g>
    <g></g>
    <g></g>
    <g></g>
    <g></g>
    <g></g>
    <g></g>
    <g></g>
    <g></g>
    <g></g>
    <g></g>
  </symbol>
  <symbol xmlns="http://www.w3.org/2000/svg" viewBox="-32 0 512 512" id="z-a">
    <path d="M16 160h48v304a16 16 0 0 0 16 16h32a16 16 0 0 0 16-16V160h48c14.21 0 21.38-17.24 11.31-27.31l-80-96a16 16 0 0 0-22.62 0l-80 96C-5.35 142.74 1.78 160 16 160zm272 64h128a16 16 0 0 0 16-16v-32a16 16 0 0 0-16-16h-56l61.26-70.45A32 32 0 0 0 432 65.63V48a16 16 0 0 0-16-16H288a16 16 0 0 0-16 16v32a16 16 0 0 0 16 16h56l-61.26 70.45A32 32 0 0 0 272 190.37V208a16 16 0 0 0 16 16zm159.06 234.62l-59.27-160A16 16 0 0 0 372.72 288h-41.44a16 16 0 0 0-15.07 10.62l-59.27 160A16 16 0 0 0 272 480h24.83a16 16 0 0 0 15.23-11.08l4.42-12.92h71l4.41 12.92A16 16 0 0 0 407.16 480H432a16 16 0 0 0 15.06-21.38zM335.61 400L352 352l16.39 48z"></path>
  </symbol>
  <symbol id="ascending" xmlns="http://www.w3.org/2000/svg" viewBox="0 0 200 200">
    <title></title>
    <path d="M152.72,35.75a9.67,9.67,0,0,0-14,0c-3,2-3.5,5-3.5,8v113.5a10,10,0,0,0,20,0V66.75l7.5,7.5a9.67,9.67,0,0,0,14,0c4-3.5,4-10,.5-14Z"></path>
    <path d="M110.22,142.75h-80a10,10,0,0,0,0,20h80a10,10,0,1,0,0-20Z"></path>
    <path d="M110.22,62.75h-80a10,10,0,0,0,0,20h80a10,10,0,0,0,0-20Z"></path>
    <path d="M30.22,122.75h70a10,10,0,0,0,0-20h-70a10,10,0,0,0,0,20Z"></path>
  </symbol>
  <symbol xmlns="http://www.w3.org/2000/svg" viewBox="-32 0 512 512" id="a-z">
    <path d="M16 160h48v304a16 16 0 0 0 16 16h32a16 16 0 0 0 16-16V160h48c14.21 0 21.38-17.24 11.31-27.31l-80-96a16 16 0 0 0-22.62 0l-80 96C-5.35 142.74 1.78 160 16 160zm400 128H288a16 16 0 0 0-16 16v32a16 16 0 0 0 16 16h56l-61.26 70.45A32 32 0 0 0 272 446.37V464a16 16 0 0 0 16 16h128a16 16 0 0 0 16-16v-32a16 16 0 0 0-16-16h-56l61.26-70.45A32 32 0 0 0 432 321.63V304a16 16 0 0 0-16-16zm31.06-85.38l-59.27-160A16 16 0 0 0 372.72 32h-41.44a16 16 0 0 0-15.07 10.62l-59.27 160A16 16 0 0 0 272 224h24.83a16 16 0 0 0 15.23-11.08l4.42-12.92h71l4.41 12.92A16 16 0 0 0 407.16 224H432a16 16 0 0 0 15.06-21.38zM335.61 144L352 96l16.39 48z"></path>
  </symbol>
  <symbol version="1.1" id="female" xmlns="http://www.w3.org/2000/svg" xmlns:xlink="http://www.w3.org/1999/xlink" x="0px" y="0px" xml:space="preserve" viewBox="0 0 471.023 471.023">
    <g>
      <g>
        <path d="M297.662,345.569c-5.374-7.689-9.313-20.27-1.018-69.356c3.226-3.189,6.307-6.323,9.196-9.301
			c3.936-2.309,8.436-5.587,13.004-10.255c-0.997,3.623-2.039,7.55-3.13,11.79c-18.061,70.109,70.166,65.185,70.166,65.185
			c-16.193-2.873-32.384-10.287-20.241-49.769c10.015-32.561-15.894-58.452-25.282-66.539c4.031-13.493,6.977-30.453,7.994-51.876
			C352.567,77.1,349.995-0.383,240.748,13.354C131.494-0.383,128.925,77.1,133.127,165.456c1.116,23.489,4.593,41.475,9.229,55.543
			c-0.336,0.729-0.475,1.373-0.475,1.373s-46.929,26.595-32.935,61.869c14,35.281-4.661,41.901-23.321,44.479
			c0,0,101.676-3.45,80.858-66.114c-0.383-1.15-0.748-2.225-1.122-3.311c3.619,3.278,7.137,5.778,10.275,7.618
			c2.892,2.989,5.981,6.111,9.209,9.301c7.057,41.75,5.258,57.106,1.114,65.622C121.8,354.854,16.571,386.538,0,459.257h235.511
			h235.513C444.069,392.697,358.006,360.525,297.662,345.569z M188.275,268.539c-1.311-1.303-2.607-2.617-3.896-3.927
			c-7.867-7.979-15.356-15.962-21.596-22.943l-7.843-42.879c-0.595-3.519-1.12-6.949-1.625-10.357
			c1.196-59.216,25.93-102.462,25.93-102.462l-7.849,27.477h69.342h69.349L294.388,78.12c0,0,31.294,50.63,33.165,114.214
			c-0.336,2.136-0.629,4.231-0.997,6.418l-7.851,42.925c-6.248,6.974-13.737,14.964-21.604,22.943
			c-1.286,1.311-2.572,2.625-3.891,3.927c-1.318,1.318-2.653,2.621-3.979,3.924c-19.741,19.352-40.118,36.632-48.49,36.632
			c-8.361,0-28.741-17.28-48.483-36.632C190.928,271.16,189.594,269.857,188.275,268.539z M240.748,420.661
			c-39.134,0-70.983-18.046-70.983-40.23c0-7.186,3.565-14.307,10.307-20.622l0.928-0.862c1.633-1.446,3.46-2.849,5.432-4.184
			l1.176-1.198c2.817-3.546,5.676-7.146,7.574-13.513c2.787-9.354,3.488-24.771-0.948-54.737
			c17.418,16.402,36.331,31.646,46.506,31.646c10.171,0,29.086-15.244,46.502-31.646c-4.937,33.369-3.494,48.686,0.169,57.827
			c1.871,4.677,4.323,7.742,6.765,10.824l0.873,0.812c1.992,1.347,3.84,2.773,5.482,4.232l0.882,0.81
			c6.736,6.319,10.303,13.449,10.303,20.626C311.724,402.615,279.885,420.661,240.748,420.661z"></path>
      </g>
    </g>
    <g></g>
    <g></g>
    <g></g>
    <g></g>
    <g></g>
    <g></g>
    <g></g>
    <g></g>
    <g></g>
    <g></g>
    <g></g>
    <g></g>
    <g></g>
    <g></g>
    <g></g>
  </symbol>
  <symbol id="descending" xmlns="http://www.w3.org/2000/svg" viewBox="0 0 200 200">
    <title></title>
    <path d="M110.22,117.75h-80a10,10,0,0,0,0,20h80a10,10,0,0,0,0-20Z"></path>
    <path d="M177.22,125.75a9.67,9.67,0,0,0-14,0l-8,7.5V42.75a10,10,0,0,0-20,0v113.5a8.29,8.29,0,0,0,3,8,9.67,9.67,0,0,0,14,0l24.5-24.5a10.13,10.13,0,0,0,.5-14Z"></path>
    <path d="M110.22,37.75h-80a10,10,0,0,0,0,20h80a10,10,0,0,0,0-20Z"></path>
    <path d="M30.22,97.75h70a10,10,0,0,0,0-20h-70a10,10,0,0,0,0,20Z"></path>
  </symbol>
  <symbol version="1.1" id="female-and-male" xmlns="http://www.w3.org/2000/svg" xmlns:xlink="http://www.w3.org/1999/xlink" x="0px" y="0px" xml:space="preserve" viewBox="0 0 418.683 418.683">
    <g>
      <g>
        <path d="M310.332,82.426c22.73,0,41.214-18.486,41.214-41.213S333.062,0,310.332,0c-22.724,0-41.213,18.486-41.213,41.213
			S287.608,82.426,310.332,82.426z"></path>
        <path d="M108.346,82.426c22.727,0,41.213-18.486,41.213-41.213S131.073,0,108.346,0C85.618,0,67.138,18.486,67.138,41.213
			S85.624,82.426,108.346,82.426z"></path>
        <path d="M206.646,210.849l-31.21-108.68c-1.777-10.003-10.353-17.226-20.518-17.226H61.786c-10.171,0-18.746,7.223-20.525,17.226
			l-31.213,108.68c-0.301,1.039-0.275,2.099,0.026,3.06c-0.157,1.002-0.236,1.952-0.236,2.908c0,11.522,9.373,20.897,20.903,20.897
			c10.074,0,18.701-7.201,20.428-16.688l13.476-50.035L42.357,278.996c-0.978,2.474-1.471,5.061-1.471,7.701
			c0,11.522,9.375,20.898,20.905,20.898h2.273v90.195c0,11.528,9.375,20.893,20.9,20.893c11.522,0,20.898-9.375,20.898-20.893
			v-90.195h4.995v90.195c0,11.528,9.373,20.893,20.898,20.893c11.525,0,20.901-9.375,20.901-20.893v-90.195h2.278
			c11.525,0,20.896-9.376,20.896-20.898c0-2.661-0.494-5.245-1.473-7.712l-22.276-107.999l13.368,49.61
			c1.824,9.917,10.457,17.118,20.53,17.118c11.522,0,20.893-9.375,20.893-20.897c0-0.95-0.082-1.916-0.236-2.914
			C206.922,212.942,206.948,211.888,206.646,210.849z"></path>
        <path d="M408.607,213.903c0.252-0.808,0.31-1.68,0.141-2.561l-20.514-108.832c-1.648-10.184-10.305-17.567-20.583-17.567H253.01
			c-10.283,0-18.936,7.391-20.552,17.431l-20.545,108.968c-0.165,0.881-0.111,1.753,0.139,2.561
			c-0.159,0.998-0.234,1.953-0.234,2.914c0,11.522,9.375,20.897,20.903,20.897c10.073,0,18.698-7.201,20.539-17.238l12.946-80.925
			l-0.167,258.24c0,11.528,9.37,20.893,20.897,20.893s20.902-9.375,20.902-20.893V269.967h4.986v127.823
			c0,11.528,9.377,20.893,20.91,20.893c11.521,0,20.893-9.375,20.893-20.897l-0.169-258.235l12.967,81.045
			c1.82,9.917,10.452,17.118,20.525,17.118c11.522,0,20.897-9.375,20.897-20.897C408.844,215.856,408.769,214.89,408.607,213.903z"></path>
      </g>
    </g>
    <g></g>
    <g></g>
    <g></g>
    <g></g>
    <g></g>
    <g></g>
    <g></g>
    <g></g>
    <g></g>
    <g></g>
    <g></g>
    <g></g>
    <g></g>
    <g></g>
    <g></g>
  </symbol>
</svg>
